<svg width="1326" height="820" viewBox="0 0 1326 820" fill="none" xmlns="http://www.w3.org/2000/svg">
<line x1="916" y1="199.5" x2="948" y2="199.5" stroke="black" stroke-width="3"/>
<line x1="948" y1="185" x2="905" y2="185" stroke="black" stroke-width="2"/>
<rect x="894.5" y="170.5" width="65" height="46" stroke="black"/>
<line x1="258.745" y1="287.777" x2="328.191" y2="287.777" stroke="black" stroke-width="3"/>
<line x1="328.191" y1="253.383" x2="234.872" y2="253.383" stroke="black" stroke-width="2"/>
<rect x="211.5" y="222.5" width="142.234" height="101" stroke="black"/>
<g clip-path="url(#clip0_204_62)">
<path d="M1000.18 392.269L997.865 404.401L1009.42 407.649L1007.98 394.697L1000.18 392.269Z" fill="#A0616A"/>
<path d="M1138.29 478.676H1019.13C1005.61 478.676 994.657 489.599 994.657 503.073V618.29C994.657 631.765 1005.61 642.688 1019.13 642.688H1138.29C1151.81 642.688 1162.76 631.765 1162.76 618.29V503.073C1162.76 489.599 1151.81 478.676 1138.29 478.676Z" fill="white"/>
<path d="M1138.29 643.265H1019.13C1005.31 643.265 994.078 632.061 994.078 618.29V503.074C994.078 489.302 1005.31 478.099 1019.13 478.099H1138.29C1152.1 478.099 1163.34 489.302 1163.34 503.074V618.29C1163.34 632.061 1152.1 643.265 1138.29 643.265ZM1019.13 479.254C1005.95 479.254 995.236 489.939 995.236 503.074V618.29C995.236 631.424 1005.95 642.11 1019.13 642.11H1138.29C1151.47 642.11 1162.18 631.424 1162.18 618.29V503.074C1162.18 489.939 1151.47 479.254 1138.29 479.254L1019.13 479.254Z" fill="black"/>
<path d="M1146.92 528.627H1099.03C1096.99 528.627 1095.34 526.979 1095.34 524.953C1095.34 522.927 1096.99 521.279 1099.03 521.279H1146.92C1148.96 521.279 1150.61 522.927 1150.61 524.953C1150.61 526.979 1148.96 528.627 1146.92 528.627Z" fill="#FDC885"/>
<path d="M1101.99 557.517H1055.43C1054.26 557.517 1053.3 556.565 1053.3 555.395C1053.3 554.224 1054.26 553.272 1055.43 553.272H1101.99C1103.16 553.272 1104.12 554.224 1104.12 555.395C1104.12 556.565 1103.16 557.517 1101.99 557.517Z" fill="#FDC885"/>
<path d="M1036.18 486.567H1009.6C1009.5 486.567 1009.42 486.647 1009.42 486.746V489.832C1009.42 489.931 1009.5 490.011 1009.6 490.011H1036.18C1036.28 490.011 1036.36 489.931 1036.36 489.832V486.746C1036.36 486.647 1036.28 486.567 1036.18 486.567Z" fill="black"/>
<path d="M1125.72 490.011C1127.24 490.011 1128.48 488.777 1128.48 487.256C1128.48 485.734 1127.24 484.5 1125.72 484.5C1124.19 484.5 1122.96 485.734 1122.96 487.256C1122.96 488.777 1124.19 490.011 1125.72 490.011Z" fill="#3F3D56"/>
<path d="M1133.32 490.011C1134.84 490.011 1136.08 488.777 1136.08 487.256C1136.08 485.734 1134.84 484.5 1133.32 484.5C1131.79 484.5 1130.55 485.734 1130.55 487.256C1130.55 488.777 1131.79 490.011 1133.32 490.011Z" fill="#3F3D56"/>
<path d="M1140.92 490.011C1142.44 490.011 1143.68 488.777 1143.68 487.256C1143.68 485.734 1142.44 484.5 1140.92 484.5C1139.39 484.5 1138.15 485.734 1138.15 487.256C1138.15 488.777 1139.39 490.011 1140.92 490.011Z" fill="#3F3D56"/>
<path d="M1018.84 568.88C1018.84 569.261 1019.14 569.567 1019.52 569.567H1137.89C1138.28 569.567 1138.58 569.261 1138.58 568.88C1138.58 568.498 1138.28 568.192 1137.89 568.192H1019.52C1019.14 568.192 1018.84 568.498 1018.84 568.88Z" fill="#FDC885"/>
<path d="M1054.94 399.302C1057.46 397.226 1060.57 396.839 1061.9 398.439C1063.22 400.038 1062.25 403.017 1059.73 405.093C1058.74 405.937 1057.55 406.53 1056.28 406.823L1045.49 415.486L1041.52 410.351L1052.58 402.357C1053.11 401.166 1053.92 400.118 1054.94 399.302Z" fill="#A0616A"/>
<path d="M992.579 418.846C992.574 418.463 992.577 415.122 995.058 413.01C997.908 410.584 1001.93 411.566 1003.34 411.91C1006.6 412.706 1006.87 414.099 1009.93 415.531C1015.65 418.21 1008.48 416.839 1011.88 415.98C1013.06 415.683 1030.03 414.51 1034.25 411.918C1042.46 406.879 1048.06 403.822 1048.06 403.822L1051.72 411.117C1051.72 411.117 1046.43 418.45 1038.98 423.883C1031.35 429.456 1027.53 432.242 1021.72 433.319C1021.23 433.411 1008.94 435.503 999.038 428.13C996.78 426.448 992.643 423.367 992.579 418.846Z" fill="black"/>
<path d="M1003.93 400.295C1010.96 400.295 1016.67 394.606 1016.67 387.589C1016.67 380.572 1010.96 374.883 1003.93 374.883C996.888 374.883 991.183 380.572 991.183 387.589C991.183 394.606 996.888 400.295 1003.93 400.295Z" fill="#A0616A"/>
<path d="M1103.72 472.95L1090.6 459.556L1083.83 466.602L1093.6 479.445L1103.3 480.551L1103.72 472.95Z" fill="#A0616A"/>
<path d="M1028.79 447.834C1029.56 447.897 1032 448.384 1034.33 447.105C1035.92 446.233 1036.73 444.935 1037.01 444.522C1040.43 439.401 1053.55 431.417 1065.33 430.925C1068 430.814 1069.75 431.122 1071.35 431.952C1073.61 433.128 1074.52 434.812 1077.39 438.759C1078.96 440.918 1080.7 442.951 1082.29 445.096C1091.59 457.654 1095.12 458.64 1094.76 462.665C1094.36 467.132 1089.53 471.37 1086.32 470.881C1085 470.68 1084.49 469.769 1082.74 467.923C1077.58 462.511 1075.45 463.511 1071.79 459.366C1067.5 454.526 1068.06 450.513 1065.83 450.358C1063.76 450.214 1062.88 453.638 1058.45 458.185C1056.43 460.266 1054.99 461.221 1050.6 464.258C1033.5 476.086 1033.23 476.917 1029.78 477.86C1028.27 478.273 1017.55 481.202 1013.73 476.54C1007.76 469.246 1021.87 447.261 1028.79 447.834Z" fill="white"/>
<path d="M1099.71 475.977C1100.68 475.545 1101.8 475.04 1102.17 473.878C1102.41 473.092 1102.27 472.122 1101.76 471.452C1101.18 470.679 1100.31 470.578 1100.35 470.441C1100.4 470.233 1102.45 470.314 1104.7 471.108C1105.13 471.257 1107.05 471.958 1109.5 473.864C1111.46 475.391 1111.2 475.697 1112.43 476.578C1116.2 479.28 1119.74 477.15 1121.79 479.685C1122.58 480.663 1122.91 482.051 1122.58 483.174C1121.91 485.429 1118.67 486.205 1116.9 486.606C1112.64 487.571 1109.41 486.783 1106.04 486.217C1094.57 484.29 1088.13 486.045 1087.27 483.397C1087.11 482.895 1087.37 482.938 1088.25 479.26C1089.13 475.63 1089.1 474.633 1089.84 474.342C1090.96 473.904 1091.71 475.895 1094.53 476.576C1097.03 477.18 1099.09 476.257 1099.71 475.977Z" fill="black"/>
<path d="M1080.39 516.768L1077.08 498.337L1067.5 500.374L1068.36 516.475L1075.76 522.82L1080.39 516.768Z" fill="#A0616A"/>
<path d="M1032.53 454.029C1033.13 454.511 1034.88 456.28 1037.53 456.527C1039.33 456.696 1040.74 456.079 1041.2 455.892C1046.91 453.569 1062.27 454.31 1072.29 460.498C1074.56 461.9 1075.84 463.138 1076.69 464.718C1077.9 466.958 1077.7 468.858 1077.86 473.731C1077.94 476.397 1078.23 479.052 1078.34 481.717C1078.97 497.319 1081.33 500.11 1078.77 503.239C1075.92 506.711 1069.54 507.513 1067.16 505.31C1066.18 504.408 1066.27 503.368 1065.86 500.857C1064.64 493.495 1062.32 493.129 1061.62 487.645C1060.8 481.243 1063.52 478.236 1061.76 476.857C1060.13 475.578 1057.47 477.918 1051.25 479.204C1048.4 479.793 1046.67 479.776 1041.33 479.831C1020.52 480.044 1019.83 480.579 1016.44 479.427C1014.96 478.923 1004.44 475.348 1003.91 469.353C1003.07 459.973 1027.13 449.682 1032.53 454.029Z" fill="white"/>
<path d="M1075.37 517.026C1076.41 517.209 1077.63 517.422 1078.58 516.664C1079.23 516.151 1079.66 515.27 1079.61 514.431C1079.57 513.464 1078.9 512.894 1079.01 512.8C1079.17 512.658 1080.82 513.874 1082.24 515.791C1082.51 516.152 1083.7 517.81 1084.66 520.758C1085.42 523.119 1085.03 523.225 1085.55 524.642C1087.15 528.992 1091.28 529.213 1091.55 532.454C1091.65 533.704 1091.14 535.042 1090.24 535.785C1088.42 537.278 1085.3 536.106 1083.61 535.446C1079.53 533.856 1077.31 531.396 1074.84 529.04C1066.43 521.027 1060.12 518.872 1060.89 516.198C1061.04 515.692 1061.24 515.876 1064.04 513.327C1066.81 510.812 1067.34 509.971 1068.12 510.147C1069.29 510.411 1068.79 512.478 1070.74 514.62C1072.47 516.517 1074.69 516.907 1075.37 517.026Z" fill="black"/>
<path d="M1005.66 390.018C1006.16 388.249 1005.54 387.604 1006.17 386.81C1006.17 386.81 1006.43 386.49 1008.71 385.627C1008.04 381.728 1008.54 381.068 1008.54 381.068C1009.12 380.308 1010.29 380.124 1011.08 380.224C1012.76 380.434 1013.06 381.946 1014.13 381.912C1015.61 381.866 1017.39 378.906 1016.84 376.34C1016.39 374.247 1014.45 372.693 1013.96 372.963C1013.48 373.23 1011.74 372.051 1011.08 372.287C1010.63 372.449 1008.51 372.234 1008.03 372.456C1007.51 372.699 1006.01 374.209 1005.86 374.019C1004.87 372.696 1004.89 372.235 1004.31 371.949C1003.28 371.444 1002.17 372.378 1000.24 373.3C996.287 375.198 995.128 374.066 993.3 375.665C992.377 376.472 991.882 378.015 990.929 381.068C989.597 385.338 988.931 387.473 989.574 389.511C990.231 391.59 991.197 391.138 992.623 394.071C994.21 397.336 993.663 399.233 995.163 399.981C996.323 400.559 998.186 400.191 998.889 399.137C1000.09 397.331 996.981 394.889 998.042 392.044C998.694 390.298 1000.7 388.974 1001.94 389.342C1003.33 389.759 1003.43 392.252 1004.31 392.213C1005.06 392.18 1005.58 390.326 1005.66 390.018Z" fill="black"/>
<path d="M996.01 402.176C998.618 399.261 1009.24 402.278 1010.24 406.904C1010.65 408.807 1009.13 409.611 1009.56 411.801C1010.18 415.006 1013.71 414.787 1016.33 418.049C1020.05 422.68 1016.22 427.207 1020.4 434.936C1021.29 436.587 1022.04 437.979 1023.62 439.326C1027.22 442.418 1030.58 441.357 1032.42 444.223C1033.8 446.367 1033.23 449.008 1033.1 449.627C1032.56 452.164 1031.09 452.783 1030.05 454.862C1028.33 458.321 1030.28 460.861 1030.39 464.994C1030.53 470.165 1027.77 477.333 1022.26 479.685C1016.07 482.327 1008.6 477.951 1004.99 473.606C1002.83 471.013 1002.2 468.621 1001.26 465.669C997.044 452.475 994.662 453.669 991.437 443.21C987.751 431.254 987.027 417.247 991.437 412.815C992.022 412.227 993.631 410.869 994.655 408.424C996.034 405.134 994.843 403.481 996.01 402.176Z" fill="black"/>
<path d="M1034.54 470.039C1036.56 472.601 1036.88 475.717 1035.24 476.999C1033.61 478.282 1030.64 477.245 1028.62 474.683C1027.8 473.67 1027.23 472.476 1026.97 471.201L1018.54 460.241L1022.89 456.928L1031.53 467.618C1032.72 468.174 1033.75 469.004 1034.54 470.039Z" fill="#A0616A"/>
<path d="M1003.67 413.286C1004.05 413.203 1007.33 412.525 1009.91 414.515C1012.87 416.802 1012.73 420.928 1012.68 422.375C1012.56 425.718 1011.25 426.263 1010.47 429.543C1009 435.677 1011.79 441.379 1013.33 444.528C1013.86 445.619 1015.57 448.955 1018.98 452.548C1025.6 459.535 1031.51 463.212 1031.51 463.212L1025.16 468.84C1025.16 468.84 1015.05 465.766 1008.19 459.608C1001.17 453.291 990.355 430.942 988.114 425.498C987.921 425.029 990.655 432.651 995.875 421.485C997.065 418.938 999.247 414.272 1003.67 413.286Z" fill="black"/>
<path d="M1090.73 584.618C1086.69 585.234 1083.74 587.811 1084.13 590.371C1084.53 592.932 1088.12 594.507 1092.16 593.89C1093.77 593.665 1095.31 593.058 1096.64 592.119L1113.71 589.29L1112.57 582.564L1095.54 584.967C1093.99 584.469 1092.34 584.349 1090.73 584.618Z" fill="#FFB6B6"/>
<path d="M1164.27 563.651L1157.65 577.652L1124.38 588.818L1096.78 590.287L1096.09 583.676L1126.01 577.439L1156.7 562.974L1164.27 563.651Z" fill="#C45A5A"/>
<path d="M1102.91 616.814L1096.97 631.797L1089.28 626.571L1093.83 610.89L1102.91 616.814Z" fill="#FFB6B6"/>
<path d="M1078.1 611.239L1062.37 626.222L1068.66 632.843L1084.74 620.298L1078.1 611.239Z" fill="#FFB6B6"/>
<path d="M1167.22 562.454L1167.04 561.235L1163.02 553.395L1149.74 556.879L1152.19 567.681L1167.22 562.454Z" fill="#FFB6B6"/>
<path d="M1161.62 614.723L1162.03 619.957C1162.03 619.957 1163.72 641.903 1150.09 643.645C1136.46 645.387 1130.52 647.13 1122.48 633.54L1109.9 611.239L1102.55 619.957L1092.78 612.284C1092.78 612.284 1099.77 585.104 1105.36 584.059C1106.06 583.928 1106.76 583.863 1107.44 583.849C1112.07 583.752 1116.44 586.01 1119.21 589.71L1135.06 610.89L1140.83 608.277L1161.62 614.723Z" fill="black"/>
<path d="M1086.14 631.101L1089.28 625.177L1098.37 631.449C1098.37 631.449 1100.47 639.115 1097.32 640.16C1094.18 641.206 1085.44 639.812 1085.44 639.812C1085.44 639.812 1069.36 643.297 1069.01 640.16C1068.66 637.024 1076.35 636.327 1076.35 636.327L1086.14 631.101Z" fill="black"/>
<path d="M1120.39 626.919L1096.1 611.66L1083.69 622.738L1075.3 612.981C1075.3 612.981 1090.68 590.331 1095.22 589.286C1099.77 588.24 1107.11 587.543 1107.11 587.543L1129.47 608.102L1120.39 626.919Z" fill="black"/>
<path d="M1062.02 624.828L1070.06 633.54L1069 634.444C1069 634.444 1066.92 643.5 1062.02 640.436C1057.13 637.373 1056.78 636.676 1056.78 636.676C1056.78 636.676 1042.8 639.812 1041.4 634.237C1040.01 628.661 1043.85 629.707 1043.85 629.707L1047.34 631.798L1062.02 624.828Z" fill="black"/>
<path d="M1153.94 560.712C1160.11 560.712 1165.12 555.72 1165.12 549.562C1165.12 543.403 1160.11 538.411 1153.94 538.411C1147.76 538.411 1142.75 543.403 1142.75 549.562C1142.75 555.72 1147.76 560.712 1153.94 560.712Z" fill="#FFB6B6"/>
<path d="M1151.31 565.416L1167.39 560.538C1167.39 560.538 1173.68 575.173 1172.63 581.794C1171.58 588.415 1162.03 619.957 1162.03 619.957L1140.83 608.277C1140.83 608.277 1140.48 601.307 1139.43 598.171C1138.38 595.035 1135.06 585.453 1142.4 577.438C1149.74 569.424 1151.31 565.416 1151.31 565.416Z" fill="#C45A5A"/>
<path d="M1115.93 638.586C1113.32 641.711 1112.81 645.59 1114.81 647.25C1116.8 648.91 1120.54 647.722 1123.16 644.595C1124.22 643.361 1124.97 641.89 1125.35 640.307L1136.26 626.926L1130.95 622.634L1119.77 635.671C1118.28 636.323 1116.96 637.322 1115.93 638.586Z" fill="#FFB6B6"/>
<path d="M1163.65 572.447L1167.45 587.454L1148.85 617.136L1129.86 636.161L1123.71 631.071L1142.86 607.317L1157.37 576.711L1163.65 572.447Z" fill="#C45A5A"/>
<path d="M1143.63 547.645C1146.49 547.638 1146.66 547.657 1147.12 547.645C1150.68 547.551 1151.61 546.156 1153.41 546.251C1156.63 546.421 1152.38 562.509 1150.62 569.946C1148.88 577.241 1154.74 583.777 1155.16 584.233C1161.1 590.677 1171.54 591.856 1173.33 589.111C1174.78 586.89 1169.64 583.513 1170.89 578.658C1172.1 573.912 1177.71 574.417 1179.27 569.946C1180.91 565.264 1175.4 562.903 1171.93 551.478C1169.94 544.917 1170.3 543.694 1168.44 539.631C1163.48 528.768 1139.15 533.393 1141.88 543.464C1142.41 545.412 1141 547.651 1143.63 547.645Z" fill="black"/>
<path d="M1179.34 415.273H1061.8C1058.48 415.273 1055.78 412.576 1055.78 409.262V347.01C1055.78 343.696 1058.48 341 1061.8 341H1179.34C1182.66 341 1185.37 343.696 1185.37 347.01V409.262C1185.37 412.576 1182.66 415.273 1179.34 415.273Z" fill="white"/>
<path d="M1179.34 415.273H1061.8C1058.48 415.273 1055.78 412.576 1055.78 409.262V347.01C1055.78 343.696 1058.48 341 1061.8 341H1179.34C1182.66 341 1185.37 343.696 1185.37 347.01V409.262C1185.37 412.576 1182.66 415.273 1179.34 415.273ZM1061.8 342.004C1059.03 342.004 1056.78 344.25 1056.78 347.01V409.262C1056.78 412.023 1059.03 414.269 1061.8 414.269H1179.34C1182.11 414.269 1184.36 412.023 1184.36 409.262V347.01C1184.36 344.25 1182.11 342.004 1179.34 342.004H1061.8Z" fill="#3F3D56"/>
<path d="M1170.27 348.528C1171.1 348.528 1171.78 347.854 1171.78 347.022C1171.78 346.191 1171.1 345.517 1170.27 345.517C1169.43 345.517 1168.76 346.191 1168.76 347.022C1168.76 347.854 1169.43 348.528 1170.27 348.528Z" fill="#3F3D56"/>
<path d="M1174.29 348.528C1175.13 348.528 1175.8 347.854 1175.8 347.022C1175.8 346.191 1175.13 345.517 1174.29 345.517C1173.46 345.517 1172.78 346.191 1172.78 347.022C1172.78 347.854 1173.46 348.528 1174.29 348.528Z" fill="#3F3D56"/>
<path d="M1178.32 348.528C1179.15 348.528 1179.83 347.854 1179.83 347.022C1179.83 346.191 1179.15 345.517 1178.32 345.517C1177.48 345.517 1176.81 346.191 1176.81 347.022C1176.81 347.854 1177.48 348.528 1178.32 348.528Z" fill="#3F3D56"/>
<path d="M1064.33 371.361C1063.92 371.361 1063.58 371.699 1063.58 372.114C1063.58 372.317 1063.65 372.504 1063.8 372.642C1063.94 372.789 1064.13 372.867 1064.33 372.867H1177.31C1177.73 372.867 1178.07 372.529 1178.07 372.114C1178.07 371.912 1177.99 371.725 1177.85 371.586C1177.7 371.44 1177.51 371.361 1177.31 371.361H1064.33Z" fill="#C45A5A"/>
<path d="M1163.22 371.11V373.118H1064.33C1064.05 373.118 1063.8 373.007 1063.62 372.822C1063.44 372.641 1063.32 372.39 1063.32 372.114C1063.32 371.562 1063.78 371.11 1064.33 371.11H1163.22Z" fill="#FDC885"/>
<path d="M1176.05 367.347H1165.99C1164.88 367.347 1163.97 366.446 1163.97 365.339C1163.97 364.232 1164.88 363.332 1165.99 363.332H1176.05C1177.16 363.332 1178.07 364.232 1178.07 365.339C1178.07 366.446 1177.16 367.347 1176.05 367.347Z" fill="#C45A5A"/>
<path d="M1110.12 356.808H1065.09C1063.98 356.808 1063.07 355.908 1063.07 354.801C1063.07 353.693 1063.98 352.793 1065.09 352.793H1110.12C1111.23 352.793 1112.13 353.693 1112.13 354.801C1112.13 355.908 1111.23 356.808 1110.12 356.808Z" fill="#C45A5A"/>
<path d="M1064.33 393.944C1063.92 393.944 1063.58 394.282 1063.58 394.697C1063.58 394.899 1063.65 395.087 1063.8 395.225C1063.94 395.371 1064.13 395.45 1064.33 395.45H1177.31C1177.73 395.45 1178.07 395.112 1178.07 394.697C1178.07 394.495 1177.99 394.307 1177.85 394.169C1177.7 394.023 1177.51 393.944 1177.31 393.944H1064.33Z" fill="#C45A5A"/>
<path d="M1124.46 393.693V395.701H1064.33C1064.05 395.701 1063.8 395.59 1063.62 395.405C1063.44 395.224 1063.32 394.973 1063.32 394.697C1063.32 394.145 1063.78 393.693 1064.33 393.693H1124.46Z" fill="#FDC885"/>
<path d="M1176.05 389.93H1165.99C1164.88 389.93 1163.97 389.029 1163.97 387.922C1163.97 386.815 1164.88 385.915 1165.99 385.915H1176.05C1177.16 385.915 1178.07 386.815 1178.07 387.922C1178.07 389.029 1177.16 389.93 1176.05 389.93Z" fill="#C45A5A"/>
</g>
<circle cx="1073" cy="155" r="6.5" stroke="black"/>
<circle cx="184.5" cy="167.5" r="12" stroke="black"/>
<circle cx="376.5" cy="444.5" r="8" stroke="black"/>
<path d="M1051.15 236.31C1052.75 222.89 1062.12 199.288 1086.87 212.242C1117.81 228.434 1103.94 194.787 1133.32 200.817C1156.81 205.641 1161.4 190.555 1160.75 182.409" stroke="black"/>
<path d="M735.891 272.806C736.95 263.891 743.179 248.213 759.62 256.818C780.172 267.574 770.959 245.223 790.471 249.228C806.081 252.433 809.123 242.412 808.693 237" stroke="black"/>
<path d="M192.731 397.357C199.713 380.268 220.647 352.604 248.522 378.666C283.366 411.242 277.348 361.894 313.828 380.52C343.012 395.422 354.532 377.225 356.644 366.264" stroke="black"/>
<path d="M200.575 124.809C207.406 118.507 222.855 110.36 230.004 128.193C238.94 150.484 246.728 126.697 259.387 142.976C269.514 155.999 278.651 150.161 281.953 145.613" stroke="black"/>
<rect x="894.5" y="170.5" width="65" height="46" stroke="black"/>
<rect x="303.5" y="519.5" width="94" height="121" fill="white" stroke="black"/>
<path d="M353.581 557.053L371.907 542L381.724 557.053" stroke="black"/>
<path d="M316.276 622.5C335.692 612.901 374.001 583.363 371.907 542" stroke="black"/>
<rect x="167" y="446" width="115" height="190" fill="#FDC885"/>
<circle cx="258.5" cy="490.5" r="8" fill="black" stroke="black"/>
<circle cx="223.5" cy="559.5" r="8" fill="black" stroke="black"/>
<circle cx="220.5" cy="518.5" r="8" fill="black" stroke="black"/>
<circle cx="250.5" cy="621.5" r="8" fill="black" stroke="black"/>
<circle cx="192.5" cy="618.5" r="8" fill="black" stroke="black"/>
<circle cx="228.5" cy="463.5" r="8" fill="black" stroke="black"/>
<circle cx="215.5" cy="488.5" r="8" fill="black" stroke="black"/>
<circle cx="219.5" cy="596.5" r="8" fill="black" stroke="black"/>
<circle cx="243.5" cy="537.5" r="8" fill="black" stroke="black"/>
<circle cx="192.5" cy="533.5" r="8" fill="black" stroke="black"/>
<circle cx="260.5" cy="582.5" r="8" fill="black" stroke="black"/>
<circle cx="197.5" cy="575.5" r="8" fill="black" stroke="black"/>
<circle cx="175.5" cy="468.5" r="8" fill="black" stroke="black"/>
<defs>
<clipPath id="clip0_204_62">
<rect width="304" height="307" fill="white" transform="translate(932 341)"/>
</clipPath>
</defs>
</svg>
